<svg width="220" height="44" viewBox="0 0 220 44" fill="none" xmlns="http://www.w3.org/2000/svg">
<path d="M59.9484 21.944C46.789 28.3717 33.3541 43.888 21.4871 43.888C9.6201 43.888 0 34.0633 0 21.944C0 9.82466 9.6201 0 21.4871 0C33.3541 0 46.0579 14.9325 59.9484 21.944Z" fill="#1CBFA2"/>
<path d="M56.7035 35.4694C53.9176 35.4694 51.407 34.9007 49.1718 33.7632C46.969 32.5932 45.2359 30.9845 43.9725 28.937C42.7415 26.8895 42.126 24.5658 42.126 21.9658C42.126 19.3659 42.7415 17.0421 43.9725 14.9947C45.2359 12.9472 46.969 11.3547 49.1718 10.2172C51.407 9.04724 53.9176 8.46224 56.7035 8.46224C59.4571 8.46224 61.8543 9.04724 63.8951 10.2172C65.9684 11.3547 67.4747 12.9959 68.4142 15.1409L62.5346 18.3096C61.174 15.9047 59.2141 14.7022 56.655 14.7022C54.6789 14.7022 53.043 15.3522 51.7472 16.6521C50.4514 17.9521 49.8035 19.7234 49.8035 21.9658C49.8035 24.2083 50.4514 25.9795 51.7472 27.2795C53.043 28.5795 54.6789 29.2295 56.655 29.2295C59.2465 29.2295 61.2064 28.027 62.5346 25.622L68.4142 28.8395C67.4747 30.9195 65.9684 32.5445 63.8951 33.7145C61.8543 34.8844 59.4571 35.4694 56.7035 35.4694Z" fill="black"/>
<path d="M85.8488 8.46224C89.8981 8.46224 93.008 9.43723 95.1785 11.3872C97.3489 13.3047 98.4341 16.2134 98.4341 20.1134V35.0794H91.3397V31.8132C89.9143 34.2507 87.258 35.4694 83.3706 35.4694C81.3622 35.4694 79.6129 35.1282 78.1227 34.4457C76.6649 33.7632 75.5473 32.8207 74.7699 31.6182C73.9924 30.4157 73.6037 29.0508 73.6037 27.5233C73.6037 25.0858 74.5107 23.1683 76.3248 21.7708C78.1713 20.3734 81.0058 19.6746 84.8284 19.6746H90.8538C90.8538 18.0171 90.3517 16.7496 89.3474 15.8722C88.3432 14.9622 86.8368 14.5072 84.8284 14.5072C83.4354 14.5072 82.0586 14.7347 80.6981 15.1897C79.3699 15.6122 78.2361 16.1972 77.2966 16.9446L74.5755 11.631C76.0009 10.6235 77.7016 9.84348 79.6776 9.29098C81.6861 8.73849 83.7432 8.46224 85.8488 8.46224ZM85.2657 30.3507C86.5615 30.3507 87.7115 30.0582 88.7157 29.4733C89.72 28.8558 90.4326 27.962 90.8538 26.792V24.1108H85.6544C82.5446 24.1108 80.9896 25.1346 80.9896 27.182C80.9896 28.157 81.3622 28.937 82.1072 29.522C82.8847 30.0745 83.9375 30.3507 85.2657 30.3507Z" fill="black"/>
<path d="M120.643 35.4694C117.857 35.4694 115.346 34.9007 113.111 33.7632C110.908 32.5932 109.175 30.9845 107.912 28.937C106.681 26.8895 106.065 24.5658 106.065 21.9658C106.065 19.3659 106.681 17.0421 107.912 14.9947C109.175 12.9472 110.908 11.3547 113.111 10.2172C115.346 9.04724 117.857 8.46224 120.643 8.46224C123.396 8.46224 125.794 9.04724 127.834 10.2172C129.908 11.3547 131.414 12.9959 132.354 15.1409L126.474 18.3096C125.113 15.9047 123.153 14.7022 120.594 14.7022C118.618 14.7022 116.982 15.3522 115.687 16.6521C114.391 17.9521 113.743 19.7234 113.743 21.9658C113.743 24.2083 114.391 25.9795 115.687 27.2795C116.982 28.5795 118.618 29.2295 120.594 29.2295C123.186 29.2295 125.146 28.027 126.474 25.622L132.354 28.8395C131.414 30.9195 129.908 32.5445 127.834 33.7145C125.794 34.8844 123.396 35.4694 120.643 35.4694Z" fill="black"/>
<path d="M156.389 33.812C155.644 34.3644 154.72 34.7869 153.619 35.0794C152.55 35.3394 151.416 35.4694 150.217 35.4694C147.108 35.4694 144.694 34.6732 142.977 33.0807C141.293 31.4882 140.451 29.1483 140.451 26.0608V15.2872H136.417V9.43723H140.451V3.05106H148.031V9.43723H154.542V15.2872H148.031V25.9633C148.031 27.0683 148.306 27.9295 148.857 28.547C149.44 29.132 150.25 29.4245 151.287 29.4245C152.485 29.4245 153.506 29.0995 154.348 28.4495L156.389 33.812Z" fill="black"/>
<path d="M189.41 8.85224V35.0794H182.219V31.9595C181.214 33.097 180.016 33.9745 178.623 34.5919C177.23 35.1769 175.724 35.4694 174.104 35.4694C170.67 35.4694 167.949 34.4782 165.94 32.4957C163.932 30.5132 162.928 27.572 162.928 23.6721V8.85224H170.508V22.5508C170.508 26.7758 172.274 28.8883 175.805 28.8883C177.619 28.8883 179.076 28.3033 180.178 27.1333C181.279 25.9308 181.83 24.1596 181.83 21.8196V8.85224H189.41Z" fill="black"/>
<path d="M207.658 35.4694C205.487 35.4694 203.365 35.2094 201.292 34.6894C199.219 34.1369 197.567 33.4545 196.336 32.642L198.863 27.182C200.029 27.9295 201.438 28.547 203.09 29.0345C204.742 29.4895 206.362 29.717 207.949 29.717C211.156 29.717 212.76 28.9208 212.76 27.3283C212.76 26.5808 212.322 26.0445 211.448 25.7195C210.573 25.3946 209.229 25.1183 207.415 24.8908C205.277 24.5658 203.511 24.1921 202.118 23.7696C200.725 23.3471 199.51 22.5996 198.474 21.5271C197.47 20.4546 196.967 18.9271 196.967 16.9446C196.967 15.2872 197.437 13.8247 198.377 12.5572C199.348 11.2572 200.741 10.2497 202.556 9.53473C204.402 8.81974 206.572 8.46224 209.067 8.46224C210.913 8.46224 212.744 8.67349 214.558 9.09598C216.404 9.48598 217.927 10.0385 219.125 10.7535L216.599 16.1647C214.299 14.8647 211.788 14.2147 209.067 14.2147C207.447 14.2147 206.232 14.4422 205.422 14.8972C204.613 15.3522 204.208 15.9372 204.208 16.6521C204.208 17.4646 204.645 18.0334 205.52 18.3584C206.394 18.6834 207.787 18.9921 209.699 19.2846C211.837 19.6421 213.586 20.0321 214.946 20.4546C216.307 20.8446 217.489 21.5758 218.494 22.6483C219.498 23.7208 220 25.2158 220 27.1333C220 28.7583 219.514 30.2045 218.542 31.472C217.57 32.7395 216.145 33.7307 214.266 34.4457C212.42 35.1282 210.217 35.4694 207.658 35.4694Z" fill="black"/>
</svg>
